HIERARCHY
ROOT Pelvis
{
	OFFSET 0.000000 0.000000 0.000000
	CHANNELS 6 Xposition Yposition Zposition Xrotation Yrotation Zrotation
	JOINT LeftUpLeg_virtual
	{
		OFFSET 0.000000 0.000000 0.000000
		CHANNELS 3 Xrotation Yrotation Zrotation
		JOINT LeftUpLeg
		{
			OFFSET 18.735201 -5.666702 -4.541200
			CHANNELS 3 Xrotation Yrotation Zrotation
			JOINT LeftLeg
			{
				OFFSET -0.021200 -31.938179 0.493100
				CHANNELS 3 Xrotation Yrotation Zrotation
				JOINT LeftFoot
				{
					OFFSET 0.021200 -31.938179 -4.336299
					CHANNELS 3 Xrotation Yrotation Zrotation
					JOINT LeftToeBase
					{
						OFFSET 0.943001 -26.722000 15.023500
						CHANNELS 3 Xrotation Yrotation Zrotation
						End Site
						{
							OFFSET 0 0 0
						}
					}
				}
			}
		}
	}
	JOINT RightUpLeg_virtual
	{
		OFFSET 0.000000 0.000000 0.000000
		CHANNELS 3 Xrotation Yrotation Zrotation
		JOINT RightUpLeg
		{
			OFFSET -18.735201 -5.666702 -4.541200
			CHANNELS 3 Xrotation Yrotation Zrotation
			JOINT RightLeg
			{
				OFFSET 0.018946 -31.938133 0.493100
				CHANNELS 3 Xrotation Yrotation Zrotation
				JOINT RightFoot
				{
					OFFSET -0.018946 -31.938126 -4.336299
					CHANNELS 3 Xrotation Yrotation Zrotation
					JOINT RightToeBase
					{
						OFFSET -0.943001 -26.722004 15.023500
						CHANNELS 3 Xrotation Yrotation Zrotation
						End Site
						{
							OFFSET 0 0 0
						}
					}
				}
			}
		}
	}
	JOINT Hips_virtual
	{
		OFFSET 0.000000 0.000000 0.000000
		CHANNELS 3 Xrotation Yrotation Zrotation
		JOINT Hips
		{
			OFFSET -0.000000 -0.000000 -0.000000
			CHANNELS 3 Xrotation Yrotation Zrotation
			JOINT Spine
			{
				OFFSET 0.000000 10.199997 -0.299500
				CHANNELS 3 Xrotation Yrotation Zrotation
				JOINT Spine1
				{
					OFFSET 0.000000 11.900002 -1.516600
					CHANNELS 3 Xrotation Yrotation Zrotation
					JOINT Spine2
					{
						OFFSET 0.000000 13.600006 -2.842500
						CHANNELS 3 Xrotation Yrotation Zrotation
						JOINT Neck_virtual
						{
							OFFSET 0.000000 0.000000 0.000000
							CHANNELS 3 Xrotation Yrotation Zrotation
							JOINT Neck
							{
								OFFSET 0.000000 9.624100 -2.890100
								CHANNELS 3 Xrotation Yrotation Zrotation
								JOINT Head
								{
									OFFSET 0.000000 14.068802 -1.351900
									CHANNELS 3 Xrotation Yrotation Zrotation
									End Site
									{
										OFFSET 0 0 0
									}
								}
							}
						}
						JOINT LeftShoulder_virtual
						{
							OFFSET 0.000000 0.000000 0.000000
							CHANNELS 3 Xrotation Yrotation Zrotation
							JOINT LeftShoulder
							{
								OFFSET 15.263000 10.923401 -0.547700
								CHANNELS 3 Xrotation Yrotation Zrotation
								JOINT LeftArm
								{
									OFFSET 25.438599 -2.830597 -13.032500
									CHANNELS 3 Xrotation Yrotation Zrotation
									JOINT LeftForeArm
									{
										OFFSET 29.960503 0.000000 0.000000
										CHANNELS 3 Xrotation Yrotation Zrotation
										JOINT LeftHand
										{
											OFFSET 27.849251 0.000000 0.000000
											CHANNELS 3 Xrotation Yrotation Zrotation
											End Site
											{
												OFFSET 0 0 0
											}
										}
									}
								}
							}
						}
						JOINT RightShoulder_virtual
						{
							OFFSET 0.000000 0.000000 0.000000
							CHANNELS 3 Xrotation Yrotation Zrotation
							JOINT RightShoulder
							{
								OFFSET -15.263000 10.923401 -0.547700
								CHANNELS 3 Xrotation Yrotation Zrotation
								JOINT RightArm
								{
									OFFSET -25.438599 -2.830597 -13.032500
									CHANNELS 3 Xrotation Yrotation Zrotation
									JOINT RightForeArm
									{
										OFFSET -29.960503 0.000000 0.000000
										CHANNELS 3 Xrotation Yrotation Zrotation
										JOINT RightHand
										{
											OFFSET -27.849251 0.000000 0.000000
											CHANNELS 3 Xrotation Yrotation Zrotation
											End Site
											{
												OFFSET 0 0 0
											}
										}
									}
								}
							}
						}
					}
				}
			}
		}
	}
}
MOTION
Frames: 12
Frame Time: 0.03333333
17.244299 11.326668 -8.048241 0.000000 0.000000 0.000000 -116.140236 73.672319 35.205623 -111.123168 14.772389 -6.595280 89.201738 12.582708 1.534855 18.758225 -0.247359 7.018309 0.000000 0.000000 0.000000 -116.140236 73.672319 35.205623 -44.554769 -2.315150 10.011932 81.032340 -13.069369 -4.300977 48.203790 -3.231674 0.901633 0.000000 0.000000 0.000000 -116.140236 73.672319 35.205623 0.000000 0.000000 0.000000 15.161329 -11.265997 -7.693266 10.269405 -4.988680 -4.175168 0.000000 0.000000 0.000000 10.075516 -5.450797 -4.055228 -1.741111 2.381304 -5.852999 0.000000 0.000000 0.000000 10.075516 -5.450797 -4.055228 4.010590 -4.908953 30.425928 -98.272154 29.592949 -48.772277 0.000001 -29.022082 -0.000000 0.000000 0.000000 0.000000 10.075516 -5.450797 -4.055228 5.201615 10.649077 -16.868033 -39.319514 45.122815 97.301229 -179.998980 77.063453 179.998994 0.000000 0.000000 0.000000 
17.202732 11.317818 -8.053131 0.000000 0.000000 0.000000 -116.136698 73.605445 35.185098 -110.981210 14.738503 -6.479259 89.626439 12.035902 1.430013 17.553217 -0.322483 6.674659 0.000000 0.000000 0.000000 -116.136698 73.605445 35.185098 -44.559454 -2.343630 10.007489 80.990238 -13.083824 -4.313159 48.276914 -3.212188 0.807628 0.000000 0.000000 0.000000 -116.136698 73.605445 35.185098 0.000000 0.000000 0.000000 15.106405 -11.261758 -7.638128 10.226777 -5.010025 -4.150920 0.000000 0.000000 0.000000 10.032180 -5.472369 -4.029278 -1.715159 2.391248 -5.863784 0.000000 0.000000 0.000000 10.032180 -5.472369 -4.029278 4.063074 -4.848789 30.216743 -98.229411 29.536159 -48.772810 -0.000003 -28.953100 -0.000001 0.000000 0.000000 0.000000 10.032180 -5.472369 -4.029278 5.188628 10.588823 -17.043084 -39.537800 45.274196 97.619803 179.999172 77.206252 -179.999185 0.000000 0.000000 0.000000 
17.165236 11.312706 -8.059319 0.000000 0.000000 0.000000 -116.140209 73.540114 35.170119 -110.834450 14.694604 -6.360404 90.035117 11.504829 1.326867 16.391942 -0.388469 6.345466 0.000000 0.000000 0.000000 -116.140209 73.540114 35.170119 -44.555814 -2.377662 10.005694 80.949210 -13.086375 -4.324273 48.342590 -3.206793 0.722891 0.000000 0.000000 0.000000 -116.140209 73.540114 35.170119 0.000001 0.000001 -0.000001 15.053621 -11.257787 -7.583003 10.185746 -5.031181 -4.126519 0.000000 0.000000 0.000000 9.990490 -5.493607 -4.003249 -1.688061 2.401393 -5.878953 0.000000 0.000000 0.000000 9.990490 -5.493607 -4.003249 4.107879 -4.790342 29.995046 -98.160241 29.449539 -48.783530 0.000000 -28.882999 0.000000 0.000000 0.000000 0.000000 9.990490 -5.493607 -4.003249 5.169981 10.526242 -17.181307 -39.744680 45.430009 97.916574 -179.999718 77.336593 179.999732 0.000000 0.000000 0.000000 
17.131573 11.310081 -8.064774 0.000000 0.000000 0.000000 -116.151929 73.477140 35.161766 -110.686009 14.644086 -6.241164 90.424697 10.996106 1.225707 15.279963 -0.445687 6.039440 0.000000 0.000000 0.000000 -116.151929 73.477140 35.161766 -44.545698 -2.416604 10.003172 80.910243 -13.087261 -4.333985 48.400817 -3.204445 0.638777 0.000000 0.000000 0.000000 -116.151929 73.477140 35.161766 0.000000 0.000000 0.000001 15.003002 -11.253497 -7.529492 10.146127 -5.051348 -4.102144 0.000000 0.000000 0.000000 9.950384 -5.513611 -3.977271 -1.658649 2.411143 -5.897215 0.000000 0.000000 0.000000 9.950384 -5.513611 -3.977271 4.142340 -4.736917 29.766658 -98.061060 29.336226 -48.805520 0.000000 -28.810158 0.000000 0.000000 0.000000 0.000000 9.950384 -5.513611 -3.977271 5.149342 10.461790 -17.293231 -39.931594 45.580496 98.183758 -179.999582 77.438376 179.999582 0.000000 0.000000 0.000000 
17.101357 11.310089 -8.069778 0.000000 0.000000 0.000000 -116.172857 73.417007 35.160267 -110.537896 14.591340 -6.124437 90.790699 10.522150 1.127307 14.229971 -0.494580 5.772575 0.000000 0.000000 0.000000 -116.172857 73.417007 35.160267 -44.528237 -2.458953 10.001177 80.871564 -13.086447 -4.341337 48.452925 -3.205694 0.557699 0.000000 0.000000 0.000000 -116.172857 73.417007 35.160267 0.000000 0.000000 0.000000 14.954370 -11.248243 -7.478818 10.107557 -5.069769 -4.078099 0.000000 0.000000 0.000000 9.911574 -5.531544 -3.951635 -1.625364 2.419960 -5.917456 0.000000 0.000000 0.000000 9.911574 -5.531544 -3.951635 4.162931 -4.692291 29.537040 -97.926096 29.197112 -48.839630 -0.000001 -28.731495 0.000000 0.000000 0.000000 0.000000 9.911574 -5.531544 -3.951635 5.128144 10.398808 -17.376833 -40.082951 45.719036 98.404660 179.998598 77.498236 -179.998598 0.000000 0.000000 0.000000 
17.073460 11.313072 -8.074905 0.000000 0.000000 0.000000 -116.201161 73.358930 35.163774 -110.391136 14.539087 -6.010264 91.133746 10.088059 1.031885 13.241154 -0.536635 5.551787 0.000000 0.000000 0.000000 -116.201161 73.358930 35.163774 -44.504222 -2.502566 9.999551 80.832755 -13.084173 -4.345915 48.499145 -3.208551 0.482599 0.000000 0.000000 0.000000 -116.201161 73.358930 35.163774 0.000000 0.000001 0.000000 14.906982 -11.241908 -7.431668 10.069417 -5.086357 -4.054828 0.000000 0.000000 0.000000 9.873482 -5.547274 -3.926744 -1.587788 2.427692 -5.938528 0.000000 0.000000 0.000000 9.873482 -5.547274 -3.926744 4.169559 -4.657170 29.309937 -97.757554 29.036166 -48.883097 0.000001 -28.644674 0.000001 0.000000 0.000000 0.000000 9.873482 -5.547274 -3.926744 5.108144 10.341258 -17.438786 -40.195547 45.841931 98.577532 -179.999363 77.518160 179.999377 0.000000 0.000000 0.000000 
17.047255 11.319359 -8.080391 0.000000 0.000000 0.000000 -116.234301 73.301727 35.169703 -110.247449 14.489247 -5.898705 91.453412 9.697119 0.939632 12.317492 -0.573167 5.381804 0.000000 0.000000 0.000000 -116.234301 73.301727 35.169703 -44.474985 -2.544271 9.998617 80.795223 -13.080799 -4.347734 48.538217 -3.209799 0.419628 0.000000 0.000000 0.000000 -116.234301 73.301727 35.169703 0.000000 -0.000001 0.000001 14.860297 -11.234700 -7.388546 10.031402 -5.101317 -4.032747 0.000000 0.000000 0.000000 9.835717 -5.561065 -3.903022 -1.545822 2.434509 -5.960126 0.000000 0.000000 0.000000 9.835717 -5.561065 -3.903022 4.162447 -4.631317 29.086275 -97.556651 28.853509 -48.933026 0.000001 -28.548145 0.000001 0.000000 0.000000 0.000000 9.835717 -5.561065 -3.903022 5.090763 10.292418 -17.484572 -40.270454 45.947417 98.703077 179.998871 77.501071 -179.998885 0.000000 0.000000 0.000000 
17.022324 11.329475 -8.086617 0.000000 0.000000 0.000000 -116.269436 73.243609 35.174757 -110.108906 14.443246 -5.789461 91.748251 9.352627 0.850873 11.467356 -0.605514 5.267994 0.000000 0.000000 0.000000 -116.269436 73.243609 35.174757 -44.441538 -2.579743 10.000643 80.760532 -13.071897 -4.347433 48.569755 -3.209102 0.381847 0.000000 0.000000 0.000000 -116.269436 73.243609 35.174757 0.000000 0.000000 -0.000001 14.814047 -11.227170 -7.350119 9.993304 -5.115001 -4.012451 0.000000 0.000000 0.000000 9.798056 -5.573366 -3.881121 -1.499558 2.440708 -5.982246 0.000000 0.000000 0.000000 9.798056 -5.573366 -3.881121 4.141599 -4.614228 28.866306 -97.322389 28.646042 -48.985905 -0.000001 -28.440349 0.000000 0.000000 0.000000 0.000000 9.798056 -5.573366 -3.881121 5.077799 10.256742 -17.517226 -40.310687 46.035291 98.780894 -179.998530 77.449386 179.998543 0.000000 0.000000 0.000000 
16.997946 11.343903 -8.093910 0.000000 0.000000 0.000000 -116.303191 73.183039 35.175648 -109.975738 14.398795 -5.680325 92.022046 9.044518 0.765034 10.682994 -0.635038 5.199684 0.000000 0.000000 0.000000 -116.303191 73.183039 35.175648 -44.403651 -2.608871 10.004784 80.729045 -13.056748 -4.345742 48.593336 -3.205518 0.371191 0.000000 0.000000 0.000000 -116.303191 73.183039 35.175648 0.000000 -0.000001 0.000001 14.768174 -11.219789 -7.315886 9.955224 -5.128043 -3.994228 0.000000 0.000000 0.000000 9.760474 -5.585003 -3.861236 -1.450226 2.446682 -6.004949 0.000000 0.000000 0.000000 9.760474 -5.585003 -3.861236 4.109604 -4.603220 28.649047 -97.059590 28.414506 -49.038033 0.000002 -28.322322 0.000001 0.000000 0.000000 0.000000 9.760474 -5.585003 -3.861236 5.069613 10.236390 -17.536253 -40.326827 46.112455 98.818077 -179.998256 77.372014 179.998284 0.000000 0.000000 0.000000 
16.973812 11.362793 -8.102379 0.000000 0.000000 0.000000 -116.334309 73.119443 35.170823 -109.849051 14.354978 -5.570330 92.277078 8.767742 0.681815 9.962445 -0.662860 5.171181 0.000000 0.000000 0.000000 -116.334309 73.119443 35.170823 -44.361532 -2.630604 10.010164 80.701827 -13.033642 -4.342869 48.608250 -3.197682 0.392869 0.000000 0.000000 0.000000 -116.334309 73.119443 35.170823 0.000000 -0.000001 0.000000 14.722295 -11.212310 -7.286059 9.917299 -5.140434 -3.978310 0.000000 0.000000 0.000000 9.723047 -5.595991 -3.843708 -1.398217 2.452459 -6.028063 0.000000 0.000000 0.000000 9.723047 -5.595991 -3.843708 4.066952 -4.597871 28.435100 -96.768850 28.158319 -49.089048 0.000001 -28.193105 -0.000000 0.000000 0.000000 0.000000 9.723047 -5.595991 -3.843708 5.066876 10.233565 -17.533876 -40.320864 46.185401 98.811780 179.999172 77.272710 -179.999185 0.000000 0.000000 0.000000 
16.950121 11.386360 -8.112465 0.000000 0.000000 0.000000 -116.371452 73.051783 35.168456 -109.729625 14.311655 -5.459508 92.512761 8.521546 0.601315 9.310145 -0.689163 5.181465 0.000000 0.000000 0.000000 -116.371452 73.051783 35.168456 -44.314660 -2.643283 10.014486 80.681521 -12.999117 -4.338879 48.611173 -3.183042 0.458115 0.000000 0.000000 0.000000 -116.371452 73.051783 35.168456 -0.000000 -0.000002 -0.000001 14.676130 -11.203595 -7.261271 9.879683 -5.151141 -3.965152 0.000000 0.000000 0.000000 9.685968 -5.605251 -3.829123 -1.342878 2.457427 -6.051002 0.000000 0.000000 0.000000 9.685968 -5.605251 -3.829123 4.011578 -4.600357 28.227382 -96.446629 27.875394 -49.142924 0.000000 -28.047311 0.000000 0.000000 0.000000 0.000000 9.685968 -5.605251 -3.829123 5.071038 10.252152 -17.493848 -40.284548 46.261373 98.746838 -179.999663 77.152280 179.999663 0.000000 0.000000 0.000000 
16.926397 11.414673 -8.124969 0.000000 0.000000 0.000000 -116.422487 72.981596 35.176034 -109.615951 14.269050 -5.348457 92.730951 8.302051 0.523128 8.719192 -0.714523 5.226048 0.000000 0.000000 0.000000 -116.422487 72.981596 35.176034 -44.261893 -2.646897 10.014429 80.669144 -12.950843 -4.334070 48.598917 -3.159212 0.575464 0.000000 0.000000 0.000000 -116.422487 72.981596 35.176034 0.000000 0.000000 0.000001 14.628942 -11.191180 -7.241746 9.842501 -5.158456 -3.954693 0.000000 0.000000 0.000000 9.649486 -5.610872 -3.817542 -1.283254 2.460503 -6.072597 0.000000 0.000000 0.000000 9.649486 -5.610872 -3.817542 3.942007 -4.613473 28.029066 -96.095127 27.569049 -49.207784 -0.000002 -27.879659 0.000000 0.000000 0.000000 0.000000 9.649486 -5.610872 -3.817542 5.081435 10.292223 -17.405274 -40.206615 46.343353 98.612338 179.999254 77.014372 -179.999267 0.000000 0.000000 0.000000 
